<?xml version="1.0" encoding="utf-8"?>
<!-- Generator: Adobe Illustrator 26.0.3, SVG Export Plug-In . SVG Version: 6.00 Build 0)  -->
<svg version="1.1" id="Layer_1" xmlns="http://www.w3.org/2000/svg" xmlns:xlink="http://www.w3.org/1999/xlink" x="0px" y="0px"
	 viewBox="0 0 394 374" style="enable-background:new 0 0 394 374;" xml:space="preserve">
<style type="text/css">
	.st0{clip-path:url(#SVGID_00000104687560438601074910000003354915662132767126_);}
	.st1{fill:none;stroke:#EBEBEB;stroke-width:0.5335;stroke-linejoin:round;stroke-miterlimit:10;}
	.st2{clip-path:url(#SVGID_00000134226057341562905440000005998340804018626195_);}
	.st3{clip-path:url(#SVGID_00000091698764694359411600000012387740683131423157_);}
	.st4{clip-path:url(#SVGID_00000074431656513136619290000005225357708304502939_);}
	.st5{clip-path:url(#SVGID_00000091725028374602316100000001514693870458743182_);}
	.st6{clip-path:url(#SVGID_00000054963279052357824090000009556239201959141543_);}
	.st7{fill:none;stroke:#EBEBEB;stroke-width:1.067;stroke-linejoin:round;stroke-miterlimit:10;}
	.st8{clip-path:url(#SVGID_00000065040490811362315710000014592093005944161681_);}
	.st9{clip-path:url(#SVGID_00000021830827135410151070000005171811968032947090_);}
	.st10{clip-path:url(#SVGID_00000163054569724164608940000012075557906602706615_);}
	.st11{clip-path:url(#SVGID_00000142163705858362565060000007335983169224715915_);}
	.st12{clip-path:url(#SVGID_00000127037937128067717400000017293102619201375399_);}
	.st13{clip-path:url(#SVGID_00000016056344311703082630000005694834445956193694_);}
	.st14{clip-path:url(#SVGID_00000117643318731164930300000008342518272213823616_);}
	.st15{clip-path:url(#SVGID_00000059306447918375872930000014107651822697991337_);}
	.st16{clip-path:url(#SVGID_00000023241736517055372980000002326218155956800641_);}
	.st17{clip-path:url(#SVGID_00000080905470198533902290000001499816081322860938_);}
	.st18{clip-path:url(#SVGID_00000021113835397350537040000012962245678471037065_);}
	.st19{clip-path:url(#SVGID_00000150781124354545371560000009565868052336944278_);}
	.st20{clip-path:url(#SVGID_00000175314837278182042240000013895967944419640483_);}
	.st21{clip-path:url(#SVGID_00000003101984004537801270000007826133926683158960_);}
	.st22{fill:none;stroke:#F8766D;stroke-width:2;stroke-linejoin:round;stroke-miterlimit:10;stroke-opacity:0.502;}
	.st23{fill:none;stroke:#D89000;stroke-width:2;stroke-linejoin:round;stroke-miterlimit:10;stroke-opacity:0.502;}
	.st24{fill:none;stroke:#A3A500;stroke-width:2;stroke-linejoin:round;stroke-miterlimit:10;stroke-opacity:0.502;}
	.st25{fill:none;stroke:#39B600;stroke-width:2;stroke-linejoin:round;stroke-miterlimit:10;stroke-opacity:0.502;}
	.st26{fill:none;stroke:#00BF7D;stroke-width:2;stroke-linejoin:round;stroke-miterlimit:10;stroke-opacity:0.502;}
	.st27{fill:none;stroke:#00BFC4;stroke-width:2;stroke-linejoin:round;stroke-miterlimit:10;stroke-opacity:0.502;}
	.st28{fill:none;stroke:#00B0F6;stroke-width:2;stroke-linejoin:round;stroke-miterlimit:10;stroke-opacity:0.502;}
	.st29{fill:none;stroke:#9590FF;stroke-width:2;stroke-linejoin:round;stroke-miterlimit:10;stroke-opacity:0.502;}
	.st30{fill:none;stroke:#E76BF3;stroke-width:2;stroke-linejoin:round;stroke-miterlimit:10;stroke-opacity:0.502;}
	.st31{fill:none;stroke:#FF62BC;stroke-width:2;stroke-linejoin:round;stroke-miterlimit:10;stroke-opacity:0.502;}
	.st32{fill:#F8766D;stroke:#F8766D;stroke-width:2;stroke-linecap:round;stroke-linejoin:round;stroke-miterlimit:10;}
	.st33{fill:#00B0F6;stroke:#00B0F6;stroke-width:2;stroke-linecap:round;stroke-linejoin:round;stroke-miterlimit:10;}
	.st34{fill:#9590FF;stroke:#9590FF;stroke-width:2;stroke-linecap:round;stroke-linejoin:round;stroke-miterlimit:10;}
	.st35{fill:#39B600;stroke:#39B600;stroke-width:2;stroke-linecap:round;stroke-linejoin:round;stroke-miterlimit:10;}
	.st36{fill:#A3A500;stroke:#A3A500;stroke-width:2;stroke-linecap:round;stroke-linejoin:round;stroke-miterlimit:10;}
	.st37{fill:#00BF7D;stroke:#00BF7D;stroke-width:2;stroke-linecap:round;stroke-linejoin:round;stroke-miterlimit:10;}
	.st38{fill:#FF62BC;stroke:#FF62BC;stroke-width:2;stroke-linecap:round;stroke-linejoin:round;stroke-miterlimit:10;}
	.st39{fill:#00BFC4;stroke:#00BFC4;stroke-width:2;stroke-linecap:round;stroke-linejoin:round;stroke-miterlimit:10;}
	.st40{fill:#D89000;stroke:#D89000;stroke-width:2;stroke-linecap:round;stroke-linejoin:round;stroke-miterlimit:10;}
	.st41{fill:#E76BF3;stroke:#E76BF3;stroke-width:2;stroke-linecap:round;stroke-linejoin:round;stroke-miterlimit:10;}
	.st42{font-family:'HelveticaNeue-Bold';}
	.st43{font-size:18.3294px;}
	.st44{font-family:'Helvetica-Bold';}
	.st45{font-size:11.0043px;}
	.st46{font-family:'Helvetica';}
	.st47{font-size:9.1702px;}
	.st48{letter-spacing:-1;}
	.st49{font-size:10px;}
</style>
<g id="main_plot">
	<g id="grid">
		<g>
			<defs>
				<rect id="SVGID_1_" x="57.3" y="253.6" width="266.5" height="1.8"/>
			</defs>
			<clipPath id="SVGID_00000151536632303911568170000013398682413964077219_">
				<use xlink:href="#SVGID_1_"  style="overflow:visible;"/>
			</clipPath>
			<g style="clip-path:url(#SVGID_00000151536632303911568170000013398682413964077219_);">
				<path class="st1" d="M57.3,254.4h266.5"/>
			</g>
		</g>
		<g>
			<defs>
				<rect id="SVGID_00000169523278265143580860000007181413556895583383_" x="57.3" y="201.3" width="266.5" height="0.9"/>
			</defs>
			<clipPath id="SVGID_00000019662043727897278180000007341829810213566602_">
				<use xlink:href="#SVGID_00000169523278265143580860000007181413556895583383_"  style="overflow:visible;"/>
			</clipPath>
			<g style="clip-path:url(#SVGID_00000019662043727897278180000007341829810213566602_);">
				<path class="st1" d="M57.3,201.5h266.5"/>
			</g>
		</g>
		<g>
			<defs>
				<rect id="SVGID_00000051355483140864188050000018054087001682674615_" x="57.3" y="148.1" width="266.5" height="0.9"/>
			</defs>
			<clipPath id="SVGID_00000140732700378606899300000003551877498697140105_">
				<use xlink:href="#SVGID_00000051355483140864188050000018054087001682674615_"  style="overflow:visible;"/>
			</clipPath>
			<g style="clip-path:url(#SVGID_00000140732700378606899300000003551877498697140105_);">
				<path class="st1" d="M57.3,148.7h266.5"/>
			</g>
		</g>
		<g>
			<defs>
				<rect id="SVGID_00000002343820885370174200000012581036843522617770_" x="57.3" y="94.9" width="266.5" height="1.8"/>
			</defs>
			<clipPath id="SVGID_00000028311091949829730340000001181912232920791980_">
				<use xlink:href="#SVGID_00000002343820885370174200000012581036843522617770_"  style="overflow:visible;"/>
			</clipPath>
			<g style="clip-path:url(#SVGID_00000028311091949829730340000001181912232920791980_);">
				<path class="st1" d="M57.3,95.9h266.5"/>
			</g>
		</g>
		<g>
			<defs>
				<rect id="SVGID_00000031207265174267180440000005843126976614605453_" x="57.3" y="42.7" width="266.5" height="0.9"/>
			</defs>
			<clipPath id="SVGID_00000133493148243519022080000001685468382750338214_">
				<use xlink:href="#SVGID_00000031207265174267180440000005843126976614605453_"  style="overflow:visible;"/>
			</clipPath>
			<g style="clip-path:url(#SVGID_00000133493148243519022080000001685468382750338214_);">
				<path class="st1" d="M57.3,43.1h266.5"/>
			</g>
		</g>
		<g>
			<defs>
				<rect id="SVGID_00000183939826034889298410000013543420930995180987_" x="57.3" y="280.2" width="266.5" height="1.8"/>
			</defs>
			<clipPath id="SVGID_00000147213576773677856280000003624354262779958457_">
				<use xlink:href="#SVGID_00000183939826034889298410000013543420930995180987_"  style="overflow:visible;"/>
			</clipPath>
			<g style="clip-path:url(#SVGID_00000147213576773677856280000003624354262779958457_);">
				<path class="st7" d="M57.3,280.8h266.5"/>
			</g>
		</g>
		<g>
			<defs>
				<rect id="SVGID_00000160148107637195764060000004696166983607753654_" x="57.3" y="227" width="266.5" height="1.8"/>
			</defs>
			<clipPath id="SVGID_00000041983955224812309360000014726833111413965222_">
				<use xlink:href="#SVGID_00000160148107637195764060000004696166983607753654_"  style="overflow:visible;"/>
			</clipPath>
			<g style="clip-path:url(#SVGID_00000041983955224812309360000014726833111413965222_);">
				<path class="st7" d="M57.3,228h266.5"/>
			</g>
		</g>
		<g>
			<defs>
				<rect id="SVGID_00000059270868868926367260000003274096331486973582_" x="57.3" y="173.8" width="266.5" height="1.8"/>
			</defs>
			<clipPath id="SVGID_00000093137992151252187000000009943099817487045557_">
				<use xlink:href="#SVGID_00000059270868868926367260000003274096331486973582_"  style="overflow:visible;"/>
			</clipPath>
			<g style="clip-path:url(#SVGID_00000093137992151252187000000009943099817487045557_);">
				<path class="st7" d="M57.3,175.1h266.5"/>
			</g>
		</g>
		<g>
			<defs>
				<rect id="SVGID_00000167385328423009285500000002468735132675745948_" x="57.3" y="121.5" width="266.5" height="1.8"/>
			</defs>
			<clipPath id="SVGID_00000086649736247702202370000013928053971204872891_">
				<use xlink:href="#SVGID_00000167385328423009285500000002468735132675745948_"  style="overflow:visible;"/>
			</clipPath>
			<g style="clip-path:url(#SVGID_00000086649736247702202370000013928053971204872891_);">
				<path class="st7" d="M57.3,122.3h266.5"/>
			</g>
		</g>
		<g>
			<defs>
				<rect id="SVGID_00000102546632715345722350000004727291897521206147_" x="57.3" y="68.3" width="266.5" height="1.8"/>
			</defs>
			<clipPath id="SVGID_00000000222575999924278870000002536205611071479701_">
				<use xlink:href="#SVGID_00000102546632715345722350000004727291897521206147_"  style="overflow:visible;"/>
			</clipPath>
			<g style="clip-path:url(#SVGID_00000000222575999924278870000002536205611071479701_);">
				<path class="st7" d="M57.3,69.5h266.5"/>
			</g>
		</g>
		<g>
			<defs>
				<rect id="SVGID_00000179610692973941322590000013630445262100804752_" x="71.8" y="38.9" width="1.8" height="265.9"/>
			</defs>
			<clipPath id="SVGID_00000152964940532708323040000004163448741737881737_">
				<use xlink:href="#SVGID_00000179610692973941322590000013630445262100804752_"  style="overflow:visible;"/>
			</clipPath>
			<g style="clip-path:url(#SVGID_00000152964940532708323040000004163448741737881737_);">
				<path class="st7" d="M72.9,304.8V38.9"/>
			</g>
		</g>
		<g>
			<defs>
				<rect id="SVGID_00000144308463151474136060000017915443971804345240_" x="98.4" y="38.9" width="1.8" height="265.9"/>
			</defs>
			<clipPath id="SVGID_00000067933002040615657030000003237772238003867268_">
				<use xlink:href="#SVGID_00000144308463151474136060000017915443971804345240_"  style="overflow:visible;"/>
			</clipPath>
			<g style="clip-path:url(#SVGID_00000067933002040615657030000003237772238003867268_);">
				<path class="st7" d="M99.1,304.8V38.9"/>
			</g>
		</g>
		<g>
			<defs>
				<rect id="SVGID_00000073717016010555937740000010535250214646507963_" x="124.1" y="38.9" width="1.8" height="265.9"/>
			</defs>
			<clipPath id="SVGID_00000009571965615631588010000003733071387579237565_">
				<use xlink:href="#SVGID_00000073717016010555937740000010535250214646507963_"  style="overflow:visible;"/>
			</clipPath>
			<g style="clip-path:url(#SVGID_00000009571965615631588010000003733071387579237565_);">
				<path class="st7" d="M125.2,304.8V38.9"/>
			</g>
		</g>
		<g>
			<defs>
				<rect id="SVGID_00000101089136350470586550000012988731243319193266_" x="150.7" y="38.9" width="1.8" height="265.9"/>
			</defs>
			<clipPath id="SVGID_00000097487363397186356970000006649795370491035280_">
				<use xlink:href="#SVGID_00000101089136350470586550000012988731243319193266_"  style="overflow:visible;"/>
			</clipPath>
			<g style="clip-path:url(#SVGID_00000097487363397186356970000006649795370491035280_);">
				<path class="st7" d="M151.3,304.8V38.9"/>
			</g>
		</g>
		<g>
			<defs>
				<rect id="SVGID_00000057827241586908750920000014218761391084752818_" x="176.3" y="38.9" width="1.8" height="265.9"/>
			</defs>
			<clipPath id="SVGID_00000134946186685603250850000003519612205561896584_">
				<use xlink:href="#SVGID_00000057827241586908750920000014218761391084752818_"  style="overflow:visible;"/>
			</clipPath>
			<g style="clip-path:url(#SVGID_00000134946186685603250850000003519612205561896584_);">
				<path class="st7" d="M177.5,304.8V38.9"/>
			</g>
		</g>
		<g>
			<defs>
				<rect id="SVGID_00000039128220043327942830000004197028977680860821_" x="202.9" y="38.9" width="1.8" height="265.9"/>
			</defs>
			<clipPath id="SVGID_00000127008584947847312890000016830467857754359208_">
				<use xlink:href="#SVGID_00000039128220043327942830000004197028977680860821_"  style="overflow:visible;"/>
			</clipPath>
			<g style="clip-path:url(#SVGID_00000127008584947847312890000016830467857754359208_);">
				<path class="st7" d="M203.6,304.8V38.9"/>
			</g>
		</g>
		<g>
			<defs>
				<rect id="SVGID_00000003789283717939183590000009311806106196796561_" x="228.6" y="38.9" width="1.8" height="265.9"/>
			</defs>
			<clipPath id="SVGID_00000114061788422783713000000002992409696637069472_">
				<use xlink:href="#SVGID_00000003789283717939183590000009311806106196796561_"  style="overflow:visible;"/>
			</clipPath>
			<g style="clip-path:url(#SVGID_00000114061788422783713000000002992409696637069472_);">
				<path class="st7" d="M229.7,304.8V38.9"/>
			</g>
		</g>
		<g>
			<defs>
				<rect id="SVGID_00000175292157074778141980000007234841221378157495_" x="255.2" y="38.9" width="1.8" height="265.9"/>
			</defs>
			<clipPath id="SVGID_00000181065151814668268360000010964778932526292152_">
				<use xlink:href="#SVGID_00000175292157074778141980000007234841221378157495_"  style="overflow:visible;"/>
			</clipPath>
			<g style="clip-path:url(#SVGID_00000181065151814668268360000010964778932526292152_);">
				<path class="st7" d="M255.9,304.8V38.9"/>
			</g>
		</g>
		<g>
			<defs>
				<rect id="SVGID_00000142854886708591856840000018388373953667922088_" x="280.9" y="38.9" width="1.8" height="265.9"/>
			</defs>
			<clipPath id="SVGID_00000176745970974080153120000005720616161312629423_">
				<use xlink:href="#SVGID_00000142854886708591856840000018388373953667922088_"  style="overflow:visible;"/>
			</clipPath>
			<g style="clip-path:url(#SVGID_00000176745970974080153120000005720616161312629423_);">
				<path class="st7" d="M282,304.8V38.9"/>
			</g>
		</g>
		<g>
			<defs>
				<rect id="SVGID_00000002365659640018239470000013207225531199700902_" x="307.5" y="38.9" width="1.8" height="265.9"/>
			</defs>
			<clipPath id="SVGID_00000107574620643915928430000004786280681571023247_">
				<use xlink:href="#SVGID_00000002365659640018239470000013207225531199700902_"  style="overflow:visible;"/>
			</clipPath>
			<g style="clip-path:url(#SVGID_00000107574620643915928430000004786280681571023247_);">
				<path class="st7" d="M308.1,304.8V38.9"/>
			</g>
		</g>
	</g>
	<g id="lines">
		<path class="st22" d="M72.9,99l26.1-7.3l26.1,2.6l26.1-6.8L177.5,73l26.1-6.1l26.1,1.3l26.1-8.5L282,51l26.1,174"/>
		<path class="st23" d="M72.9,233.1l26.1-5.3l26.1-6.9l26.1-1l26.1-2l26.1,2.1l26.1-2.6l26.1-1.4l26.1-10.1l26.1,59.4"/>
		<path class="st24" d="M72.9,198l26.1-0.7l26.1,1.6l26.1-2.7l26.1-1.5l26.1-10.5l26.1-8.1l26.1-8.2l26.1-11.8l26.1,91.6"/>
		<path class="st25" d="M72.9,188.2l26.1-2.7l26.1-5.4l26.1-9.3l26.1-4.1l26.1,1.6l26.1-2.8l26.1-5.3l26.1-15.6l26.1,90.8"/>
		<path class="st26" d="M72.9,208.6l26.1-4.5l26.1-2.7l26.1-6.4l26.1-8.1l26.1-7.7l26.1-1.6l26.1-5.7l26.1-2.2l26.1,120.3"/>
		<path class="st27" d="M72.9,228.6l26.1-0.5l26.1,0.1l26.1-3.6l26.1-6.5l26.1-5.2l26.1-2.8l26.1-2.3L282,203l26.1,74.7"/>
		<path class="st28" d="M72.9,172.3l26.1-4.2l26.1-5.8l26.1-10l26.1-10.8l26.1-17.4l26.1-8.4l26.1-7.4l26.1-1.7l26.1,152.6"/>
		<path class="st29" d="M72.9,165.1l26.1-1.5l26.1-0.8l26.1-8.1l26.1-13l26.1-6.8l26.1-5.3l26.1-6.8l26.1-5.3l26.1,138.7"/>
		<path class="st30" d="M72.9,229.3l26.1,1l26.1,0.2l26.1-4.3l26.1-5.3l26.1,2.4l26.1-1.5l26.1-2.3l26.1-4.3l26.1,62.9"/>
		<path class="st31" d="M72.9,227.7l26.1-6.5l26.1-2.2l26.1-5.6l26.1-7.5l26.1-8l26.1-6.3l26.1-4.7l26.1,0.1l26.1,105.8"/>
	</g>
	<g id="dots">
		<path class="st32" d="M74.7,99c0,2.4-3.6,2.4-3.6,0S74.7,96.6,74.7,99"/>
		<path class="st32" d="M100.9,91.7c0,2.4-3.6,2.4-3.6,0S100.9,89.3,100.9,91.7"/>
		<path class="st32" d="M127,94.3c0,2.4-3.6,2.4-3.6,0C123.4,91.9,127,91.9,127,94.3"/>
		<path class="st32" d="M153.1,87.4c0,2.4-3.6,2.4-3.6,0C149.5,85,153.1,85,153.1,87.4"/>
		<path class="st32" d="M179.3,73c0,2.4-3.6,2.4-3.6,0C175.7,70.6,179.3,70.6,179.3,73"/>
		<path class="st32" d="M205.4,66.8c0,2.4-3.6,2.4-3.6,0S205.4,64.5,205.4,66.8"/>
		<path class="st32" d="M231.5,68.2c0,2.4-3.6,2.4-3.6,0C227.9,65.8,231.5,65.8,231.5,68.2"/>
		<path class="st32" d="M257.7,59.6c0,2.4-3.6,2.4-3.6,0S257.7,57.2,257.7,59.6"/>
		<path class="st32" d="M283.8,51c0,2.4-3.6,2.4-3.6,0C280.2,48.6,283.8,48.6,283.8,51"/>
		<path class="st32" d="M309.9,225c0,2.4-3.6,2.4-3.6,0C306.3,222.6,309.9,222.6,309.9,225"/>
		<path class="st33" d="M74.7,172.3c0,2.4-3.6,2.4-3.6,0C71.1,170,74.7,170,74.7,172.3"/>
		<path class="st33" d="M100.9,168.1c0,2.4-3.6,2.4-3.6,0C97.3,165.7,100.9,165.7,100.9,168.1"/>
		<path class="st33" d="M127,162.3c0,2.4-3.6,2.4-3.6,0C123.4,159.9,127,159.9,127,162.3"/>
		<path class="st33" d="M153.1,152.4c0,2.4-3.6,2.4-3.6,0C149.5,150,153.1,150,153.1,152.4"/>
		<path class="st33" d="M179.3,141.6c0,2.4-3.6,2.4-3.6,0C175.7,139.2,179.3,139.2,179.3,141.6"/>
		<path class="st33" d="M205.4,124.2c0,2.4-3.6,2.4-3.6,0S205.4,121.8,205.4,124.2"/>
		<path class="st33" d="M231.5,115.8c0,2.4-3.6,2.4-3.6,0S231.5,113.4,231.5,115.8"/>
		<path class="st33" d="M257.7,108.5c0,2.4-3.6,2.4-3.6,0C254.1,106.1,257.7,106.1,257.7,108.5"/>
		<path class="st33" d="M283.8,106.8c0,2.4-3.6,2.4-3.6,0S283.8,104.4,283.8,106.8"/>
		<path class="st33" d="M309.9,259.4c0,2.4-3.6,2.4-3.6,0C306.3,257,309.9,257,309.9,259.4"/>
		<path class="st34" d="M74.7,165.1c0,2.4-3.6,2.4-3.6,0C71.1,162.8,74.7,162.8,74.7,165.1"/>
		<path class="st34" d="M100.9,163.7c0,2.4-3.6,2.4-3.6,0C97.3,161.3,100.9,161.3,100.9,163.7"/>
		<path class="st34" d="M127,162.9c0,2.4-3.6,2.4-3.6,0C123.4,160.5,127,160.5,127,162.9"/>
		<path class="st34" d="M153.1,154.8c0,2.4-3.6,2.4-3.6,0C149.5,152.4,153.1,152.4,153.1,154.8"/>
		<path class="st34" d="M179.3,141.8c0,2.4-3.6,2.4-3.6,0C175.7,139.4,179.3,139.4,179.3,141.8"/>
		<path class="st34" d="M205.4,135c0,2.4-3.6,2.4-3.6,0C201.8,132.7,205.4,132.7,205.4,135"/>
		<path class="st34" d="M231.5,129.7c0,2.4-3.6,2.4-3.6,0C227.9,127.4,231.5,127.4,231.5,129.7"/>
		<path class="st34" d="M257.7,123c0,2.4-3.6,2.4-3.6,0S257.7,120.6,257.7,123"/>
		<path class="st34" d="M283.8,117.7c0,2.4-3.6,2.4-3.6,0C280.2,115.3,283.8,115.3,283.8,117.7"/>
		<path class="st34" d="M309.9,256.5c0,2.4-3.6,2.4-3.6,0C306.3,254.1,309.9,254.1,309.9,256.5"/>
		<path class="st35" d="M74.7,188.2c0,2.4-3.6,2.4-3.6,0C71.1,185.9,74.7,185.9,74.7,188.2"/>
		<path class="st35" d="M100.9,185.6c0,2.4-3.6,2.4-3.6,0C97.3,183.2,100.9,183.2,100.9,185.6"/>
		<path class="st35" d="M127,180.2c0,2.4-3.6,2.4-3.6,0C123.4,177.8,127,177.8,127,180.2"/>
		<path class="st35" d="M153.1,170.9c0,2.4-3.6,2.4-3.6,0C149.5,168.5,153.1,168.5,153.1,170.9"/>
		<path class="st35" d="M179.3,166.7c0,2.4-3.6,2.4-3.6,0C175.7,164.4,179.3,164.4,179.3,166.7"/>
		<path class="st35" d="M205.4,168.4c0,2.4-3.6,2.4-3.6,0C201.8,166,205.4,166,205.4,168.4"/>
		<path class="st35" d="M231.5,165.5c0,2.4-3.6,2.4-3.6,0C227.9,163.2,231.5,163.2,231.5,165.5"/>
		<path class="st35" d="M257.7,160.2c0,2.4-3.6,2.4-3.6,0C254.1,157.8,257.7,157.8,257.7,160.2"/>
		<path class="st35" d="M283.8,144.6c0,2.4-3.6,2.4-3.6,0C280.2,142.2,283.8,142.2,283.8,144.6"/>
		<path class="st35" d="M309.9,235.4c0,2.4-3.6,2.4-3.6,0C306.3,233,309.9,233,309.9,235.4"/>
		<path class="st36" d="M74.7,198c0,2.4-3.6,2.4-3.6,0C71.1,195.6,74.7,195.6,74.7,198"/>
		<path class="st36" d="M100.9,197.3c0,2.4-3.6,2.4-3.6,0C97.3,194.9,100.9,194.9,100.9,197.3"/>
		<path class="st36" d="M127,198.9c0,2.4-3.6,2.4-3.6,0C123.4,196.5,127,196.5,127,198.9"/>
		<path class="st36" d="M153.1,196.3c0,2.4-3.6,2.4-3.6,0C149.5,193.9,153.1,193.9,153.1,196.3"/>
		<path class="st36" d="M179.3,194.8c0,2.4-3.6,2.4-3.6,0C175.7,192.4,179.3,192.4,179.3,194.8"/>
		<path class="st36" d="M205.4,184.3c0,2.4-3.6,2.4-3.6,0C201.8,181.9,205.4,181.9,205.4,184.3"/>
		<path class="st36" d="M231.5,176.1c0,2.4-3.6,2.4-3.6,0C227.9,173.8,231.5,173.8,231.5,176.1"/>
		<path class="st36" d="M257.7,167.9c0,2.4-3.6,2.4-3.6,0C254.1,165.5,257.7,165.5,257.7,167.9"/>
		<path class="st36" d="M283.8,156.2c0,2.4-3.6,2.4-3.6,0C280.2,153.8,283.8,153.8,283.8,156.2"/>
		<path class="st36" d="M309.9,247.8c0,2.4-3.6,2.4-3.6,0C306.3,245.4,309.9,245.4,309.9,247.8"/>
		<path class="st37" d="M74.7,208.6c0,2.4-3.6,2.4-3.6,0C71.1,206.2,74.7,206.2,74.7,208.6"/>
		<path class="st37" d="M100.9,204.1c0,2.4-3.6,2.4-3.6,0C97.3,201.7,100.9,201.7,100.9,204.1"/>
		<path class="st37" d="M127,201.4c0,2.4-3.6,2.4-3.6,0C123.4,199,127,199,127,201.4"/>
		<path class="st37" d="M153.1,195c0,2.4-3.6,2.4-3.6,0C149.5,192.6,153.1,192.6,153.1,195"/>
		<path class="st37" d="M179.3,186.9c0,2.4-3.6,2.4-3.6,0C175.7,184.5,179.3,184.5,179.3,186.9"/>
		<path class="st37" d="M205.4,179.2c0,2.4-3.6,2.4-3.6,0C201.8,176.8,205.4,176.8,205.4,179.2"/>
		<path class="st37" d="M231.5,177.6c0,2.4-3.6,2.4-3.6,0C227.9,175.2,231.5,175.2,231.5,177.6"/>
		<path class="st37" d="M257.7,171.9c0,2.4-3.6,2.4-3.6,0S257.7,169.5,257.7,171.9"/>
		<path class="st37" d="M283.8,169.7c0,2.4-3.6,2.4-3.6,0C280.2,167.3,283.8,167.3,283.8,169.7"/>
		<path class="st37" d="M309.9,289.9c0,2.4-3.6,2.4-3.6,0C306.3,287.5,309.9,287.5,309.9,289.9"/>
		<path class="st38" d="M74.7,227.7c0,2.4-3.6,2.4-3.6,0C71.1,225.3,74.7,225.3,74.7,227.7"/>
		<path class="st38" d="M100.9,221.2c0,2.4-3.6,2.4-3.6,0C97.3,218.8,100.9,218.8,100.9,221.2"/>
		<path class="st38" d="M127,219c0,2.4-3.6,2.4-3.6,0C123.4,216.6,127,216.6,127,219"/>
		<path class="st38" d="M153.1,213.3c0,2.4-3.6,2.4-3.6,0C149.5,210.9,153.1,210.9,153.1,213.3"/>
		<path class="st38" d="M179.3,205.8c0,2.4-3.6,2.4-3.6,0C175.7,203.4,179.3,203.4,179.3,205.8"/>
		<path class="st38" d="M205.4,197.8c0,2.4-3.6,2.4-3.6,0C201.8,195.4,205.4,195.4,205.4,197.8"/>
		<path class="st38" d="M231.5,191.5c0,2.4-3.6,2.4-3.6,0C227.9,189.1,231.5,189.1,231.5,191.5"/>
		<path class="st38" d="M257.7,186.8c0,2.4-3.6,2.4-3.6,0C254.1,184.4,257.7,184.4,257.7,186.8"/>
		<path class="st38" d="M283.8,186.9c0,2.4-3.6,2.4-3.6,0C280.2,184.5,283.8,184.5,283.8,186.9"/>
		<path class="st38" d="M309.9,292.7c0,2.4-3.6,2.4-3.6,0S309.9,290.3,309.9,292.7"/>
		<path class="st39" d="M74.7,228.6c0,2.4-3.6,2.4-3.6,0S74.7,226.2,74.7,228.6"/>
		<path class="st39" d="M100.9,228.2c0,2.4-3.6,2.4-3.6,0C97.3,225.8,100.9,225.8,100.9,228.2"/>
		<path class="st39" d="M127,228.2c0,2.4-3.6,2.4-3.6,0C123.4,225.9,127,225.9,127,228.2"/>
		<path class="st39" d="M153.1,224.7c0,2.4-3.6,2.4-3.6,0C149.5,222.3,153.1,222.3,153.1,224.7"/>
		<path class="st39" d="M179.3,218.1c0,2.4-3.6,2.4-3.6,0C175.7,215.8,179.3,215.8,179.3,218.1"/>
		<path class="st39" d="M205.4,213c0,2.4-3.6,2.4-3.6,0C201.8,210.6,205.4,210.6,205.4,213"/>
		<path class="st39" d="M231.5,210.2c0,2.4-3.6,2.4-3.6,0C227.9,207.8,231.5,207.8,231.5,210.2"/>
		<path class="st39" d="M257.7,207.9c0,2.4-3.6,2.4-3.6,0C254.1,205.5,257.7,205.5,257.7,207.9"/>
		<path class="st39" d="M283.8,203c0,2.4-3.6,2.4-3.6,0C280.2,200.6,283.8,200.6,283.8,203"/>
		<path class="st39" d="M309.9,277.7c0,2.4-3.6,2.4-3.6,0S309.9,275.3,309.9,277.7"/>
		<path class="st40" d="M74.7,233.1c0,2.4-3.6,2.4-3.6,0C71.1,230.7,74.7,230.7,74.7,233.1"/>
		<path class="st40" d="M100.9,227.8c0,2.4-3.6,2.4-3.6,0C97.3,225.4,100.9,225.4,100.9,227.8"/>
		<path class="st40" d="M127,220.8c0,2.4-3.6,2.4-3.6,0C123.4,218.5,127,218.5,127,220.8"/>
		<path class="st40" d="M153.1,219.8c0,2.4-3.6,2.4-3.6,0C149.5,217.4,153.1,217.4,153.1,219.8"/>
		<path class="st40" d="M179.3,217.9c0,2.4-3.6,2.4-3.6,0C175.7,215.5,179.3,215.5,179.3,217.9"/>
		<path class="st40" d="M205.4,220c0,2.4-3.6,2.4-3.6,0C201.8,217.6,205.4,217.6,205.4,220"/>
		<path class="st40" d="M231.5,217.3c0,2.4-3.6,2.4-3.6,0C227.9,214.9,231.5,214.9,231.5,217.3"/>
		<path class="st40" d="M257.7,215.9c0,2.4-3.6,2.4-3.6,0C254.1,213.5,257.7,213.5,257.7,215.9"/>
		<path class="st40" d="M283.8,205.8c0,2.4-3.6,2.4-3.6,0C280.2,203.4,283.8,203.4,283.8,205.8"/>
		<path class="st40" d="M309.9,265.2c0,2.4-3.6,2.4-3.6,0C306.3,262.8,309.9,262.8,309.9,265.2"/>
		<path class="st41" d="M74.7,229.3c0,2.4-3.6,2.4-3.6,0C71.1,226.9,74.7,226.9,74.7,229.3"/>
		<path class="st41" d="M100.9,230.3c0,2.4-3.6,2.4-3.6,0C97.3,227.9,100.9,227.9,100.9,230.3"/>
		<path class="st41" d="M127,230.5c0,2.4-3.6,2.4-3.6,0C123.4,228.1,127,228.1,127,230.5"/>
		<path class="st41" d="M153.1,226.1c0,2.4-3.6,2.4-3.6,0C149.5,223.7,153.1,223.7,153.1,226.1"/>
		<path class="st41" d="M179.3,220.8c0,2.4-3.6,2.4-3.6,0C175.7,218.4,179.3,218.4,179.3,220.8"/>
		<path class="st41" d="M205.4,223.2c0,2.4-3.6,2.4-3.6,0C201.8,220.8,205.4,220.8,205.4,223.2"/>
		<path class="st41" d="M231.5,221.7c0,2.4-3.6,2.4-3.6,0C227.9,219.3,231.5,219.3,231.5,221.7"/>
		<path class="st41" d="M257.7,219.4c0,2.4-3.6,2.4-3.6,0C254.1,217,257.7,217,257.7,219.4"/>
		<path class="st41" d="M283.8,215.1c0,2.4-3.6,2.4-3.6,0C280.2,212.7,283.8,212.7,283.8,215.1"/>
		<path class="st41" d="M309.9,278c0,2.4-3.6,2.4-3.6,0C306.3,275.6,309.9,275.6,309.9,278"/>
	</g>
</g>
<g id="legend_dots">
	<path class="st22" d="M335.1,105.9h13.8"/>
	<path class="st32" d="M343.9,105.9c0,2.6-3.9,2.6-3.9,0S343.9,103.3,343.9,105.9"/>
	<path class="st23" d="M335.1,123.2h13.8"/>
	<path class="st40" d="M343.9,123.2c0,2.6-3.9,2.6-3.9,0C340,120.6,343.9,120.6,343.9,123.2"/>
	<path class="st24" d="M335.1,140.4h13.8"/>
	<path class="st36" d="M343.9,140.4c0,2.6-3.9,2.6-3.9,0S343.9,137.8,343.9,140.4"/>
	<path class="st25" d="M335.1,157.7h13.8"/>
	<path class="st35" d="M343.9,157.7c0,2.6-3.9,2.6-3.9,0S343.9,155.1,343.9,157.7"/>
	<path class="st26" d="M335.1,175h13.8"/>
	<path class="st37" d="M343.9,175c0,2.6-3.9,2.6-3.9,0C340,172.4,343.9,172.4,343.9,175"/>
	<path class="st27" d="M335.1,192.3h13.8"/>
	<path class="st39" d="M343.9,192.3c0,2.6-3.9,2.6-3.9,0S343.9,189.7,343.9,192.3"/>
	<path class="st28" d="M335.1,209.6h13.8"/>
	<path class="st33" d="M343.9,209.6c0,2.6-3.9,2.6-3.9,0S343.9,207,343.9,209.6"/>
	<path class="st29" d="M335.1,226.9h13.8"/>
	<path class="st34" d="M343.9,226.9c0,2.6-3.9,2.6-3.9,0C340,224.2,343.9,224.2,343.9,226.9"/>
	<path class="st30" d="M335.1,244.1h13.8"/>
	<path class="st41" d="M343.9,244.1c0,2.6-3.9,2.6-3.9,0S343.9,241.5,343.9,244.1"/>
	<path class="st31" d="M335.1,261.4h13.8"/>
	<path class="st38" d="M343.9,261.4c0,2.6-3.9,2.6-3.9,0S343.9,258.8,343.9,261.4"/>
</g>
<text transform="matrix(1 0 0 1 22.4922 29.4893)" class="st42 st43">Enplanements at the top 10 U.S. Airports</text>
<g>
	<text transform="matrix(6.123234e-17 -1 1 6.123234e-17 29.7936 245.1279)" class="st44 st45">Enplanements (by millions)</text>
</g>
<text transform="matrix(1 0 0 1 179.2629 336.6533)" class="st44 st45">Year</text>
<text transform="matrix(1 0 0 1 335.0607 91.7818)" class="st44 st45">Airports</text>
<text transform="matrix(1 0 0 1 62.646 316.5586)"><tspan x="0" y="0" class="st46 st47">2</tspan><tspan x="5.1" y="0" class="st46 st47">0</tspan><tspan x="9.3" y="0" class="st46 st47 st48">1</tspan><tspan x="12.7" y="0" class="st46 st47">1</tspan></text>
<text transform="matrix(1 0 0 1 88.5752 316.5586)"><tspan x="0" y="0" class="st46 st47">2</tspan><tspan x="5.1" y="0" class="st46 st47">01</tspan><tspan x="13.5" y="0" class="st46 st47">2</tspan></text>
<text transform="matrix(1 0 0 1 114.7798 316.5586)"><tspan x="0" y="0" class="st46 st47">2</tspan><tspan x="5.1" y="0" class="st46 st47">0</tspan><tspan x="9.3" y="0" class="st46 st47">1</tspan><tspan x="13.6" y="0" class="st46 st47">3</tspan></text>
<text transform="matrix(1 0 0 1 141.168 316.5586)"><tspan x="0" y="0" class="st46 st47">2</tspan><tspan x="5.1" y="0" class="st46 st47">01</tspan><tspan x="13.5" y="0" class="st46 st47">4</tspan></text>
<text transform="matrix(1 0 0 1 167.3721 316.5586)"><tspan x="0" y="0" class="st46 st47">2</tspan><tspan x="5.1" y="0" class="st46 st47">0</tspan><tspan x="9.3" y="0" class="st46 st47">1</tspan><tspan x="13.6" y="0" class="st46 st47">5</tspan></text>
<text transform="matrix(1 0 0 1 193.7598 316.5586)"><tspan x="0" y="0" class="st46 st47">2</tspan><tspan x="5.1" y="0" class="st46 st47">01</tspan><tspan x="13.5" y="0" class="st46 st47">6</tspan></text>
<text transform="matrix(1 0 0 1 219.9648 316.5586)"><tspan x="0" y="0" class="st46 st47">2</tspan><tspan x="5.1" y="0" class="st46 st47">0</tspan><tspan x="9.3" y="0" class="st46 st47">1</tspan><tspan x="13.6" y="0" class="st46 st47">7</tspan></text>
<text transform="matrix(1 0 0 1 246.3525 316.5586)"><tspan x="0" y="0" class="st46 st47">2</tspan><tspan x="5.1" y="0" class="st46 st47">01</tspan><tspan x="13.5" y="0" class="st46 st47">8</tspan></text>
<text transform="matrix(1 0 0 1 272.6484 316.5586)"><tspan x="0" y="0" class="st46 st47">2</tspan><tspan x="5.1" y="0" class="st46 st47">01</tspan><tspan x="13.5" y="0" class="st46 st47">9</tspan></text>
<text transform="matrix(1 0 0 1 297.8438 316.5576)"><tspan x="0" y="0" class="st46 st47">20</tspan><tspan x="10.2" y="0" class="st46 st47">2</tspan><tspan x="15.7" y="0" class="st46 st47">0</tspan></text>
<text transform="matrix(1 0 0 1 200.6014 357.7332)" class="st46 st49">Source: Federal Aviation Administration</text>
<text transform="matrix(1 0 0 1 43.6453 72.9758)" class="st46 st47">50</text>
<text transform="matrix(1 0 0 1 43.6453 126.0304)" class="st46 st47">40</text>
<text transform="matrix(1 0 0 1 43.6453 179.085)" class="st46 st47">30</text>
<text transform="matrix(1 0 0 1 43.6453 232.1396)" class="st46 st47">20</text>
<text transform="matrix(1 0 0 1 43.6454 283.5699)" class="st46 st47">10</text>
<text transform="matrix(1 0 0 1 355.9829 108.9986)" class="st46 st47">ATL</text>
<text transform="matrix(1 0 0 1 355.9825 126.3771)" class="st46 st47">CLT</text>
<text transform="matrix(1 0 0 1 355.9825 143.7561)" class="st46 st47">DEN</text>
<text transform="matrix(1 0 0 1 355.9826 161.135)" class="st46 st47">DFW</text>
<text transform="matrix(1 0 0 1 355.9827 178.5139)" class="st46 st47">JFK</text>
<text transform="matrix(1 0 0 1 355.9827 195.8929)" class="st46 st47">LAS</text>
<text transform="matrix(1 0 0 1 355.9828 213.2713)" class="st46 st47">LAX</text>
<text transform="matrix(1 0 0 1 355.9828 230.6507)" class="st46 st47">ORD</text>
<text transform="matrix(1 0 0 1 355.9829 248.0291)" class="st46 st47">PHX</text>
<text transform="matrix(1 0 0 1 355.983 265.4086)" class="st46 st47">SFO</text>
</svg>
